<?xml version="1.0" encoding="utf-8"?><!DOCTYPE svg PUBLIC "-//W3C//DTD SVG 1.1//EN" "http://www.w3.org/Graphics/SVG/1.1/DTD/svg11.dtd"><svg version="1.1" id="Contours" xmlns="http://www.w3.org/2000/svg" xmlns:xlink="http://www.w3.org/1999/xlink" x="0px" y="0px" width="1200px" height="auto" viewBox="0.000004 0.000000 1385.741211 2261.923828" enable-background="new 0 0 1385.741211 1385.741211" xml:space="preserve" stroke="black" fill="none" stroke-linecap='round' stroke-linejoin='round'><path class="selected"  fill="#000000" opacity="1.000000" stroke="none" 
 	d="
M339.811321 890.240890 C337.811321 881.070541 335.274456 872.986068 333.949749 864.707626 C332.360760 854.776718 329.597393 845.311447 325.858074 836.028915 C323.670940 830.599472 320.566692 825.048691 320.296612 819.435959 C319.659222 806.187423 312.880413 795.046920 309.157452 782.926254 C302.190899 760.245285 293.972271 737.929672 285.681927 715.682907 C281.818707 705.316208 276.486126 695.502792 272.010967 685.354171 C270.896557 682.826889 270.773754 679.875595 269.768261 677.284836 C265.394970 666.016891 259.642956 655.439621 253.678021 644.939438 C251.117748 640.432602 249.998577 635.131942 247.757397 630.413925 C242.594036 619.544052 236.964398 608.894272 231.872112 597.992599 C228.226238 590.187240 225.094463 582.138778 221.822704 574.162216 C216.447430 561.057235 211.301983 547.855453 205.750012 534.826523 C202.612194 527.462936 201.582440 519.373153 195.961681 512.817123 C187.414532 502.847702 181.900890 490.836166 175.602001 479.350265 C172.551678 473.788070 167.249188 469.482101 163.101879 464.494613 C158.589703 459.068344 153.666027 453.863510 149.977245 447.908340 C146.542706 442.363662 140.762249 438.517074 139.416790 431.242782 C138.748180 427.627975 134.350689 424.809524 132.019207 421.373581 C127.106426 414.133346 123.996563 406.078689 121.722729 397.641250 C121.196179 395.687362 119.984234 393.286148 118.362866 392.361007 C107.069409 385.917221 95.413921 380.098098 84.218090 373.496109 C75.846203 368.559311 68.089733 362.591537 59.878338 357.367080 C46.456280 348.827377 34.056286 338.755722 19.407482 332.009292 C12.916485 329.019912 7.568981 323.535507 1.731930 319.144424 C-0.495045 317.469162 -0.502659 316.098495 1.297619 313.524673 C6.129971 306.615951 8.848415 298.797928 10.854488 290.485397 C12.861920 282.167251 16.839001 274.335617 19.789898 266.231460 C24.114819 254.353897 28.134960 242.363510 32.578198 230.531357 C37.777355 216.686203 44.715679 203.514175 48.164929 188.982071 C49.587780 182.987396 52.517101 177.312957 53.606335 171.284195 C55.885296 158.670410 60.823559 146.901504 64.506329 134.754821 C69.694378 117.643402 74.975018 100.426239 82.091107 84.070083 C89.492687 67.057831 95.181683 49.490425 101.906597 32.277885 C103.246288 28.848869 106.237133 26.084068 107.717114 22.686508 C110.297192 16.763397 112.196240 10.547432 114.582562 4.534309 C115.599316 1.972313 116.613720 -0.473503 120.615093 0.078697 C124.057110 0.553703 126.649456 0.594978 127.965435 4.729263 C129.258556 8.791870 131.812267 12.453048 133.811138 16.291244 C139.950390 28.079651 145.670818 40.112373 152.361675 51.578880 C157.583508 60.527824 163.818493 68.913971 169.948711 77.297592 C178.399151 88.854248 187.098065 100.232589 195.869366 111.548721 C197.874737 114.135925 200.845684 115.958755 202.966412 118.475357 C210.014355 126.839019 217.046581 135.227157 223.749859 143.865814 C227.985638 149.324554 231.086651 155.722931 235.640331 160.863922 C245.897442 172.443985 256.895184 183.365249 267.268871 194.846176 C271.279369 199.284713 274.374249 204.543808 277.958355 209.375595 C296.724529 234.674728 320.451397 255.312454 342.334698 277.673843 C354.697369 290.306625 369.586895 299.939895 383.186321 311.082351 C398.802532 323.877243 415.895001 334.691299 430.972393 348.178970 C438.280743 354.716751 447.248821 359.120681 454.724468 365.765915 C464.419903 374.384353 475.349041 381.635513 485.894268 389.271927 C497.143292 397.417984 508.105877 406.100998 520.019756 413.153915 C536.909161 423.152298 553.621075 433.418747 570.381268 443.621292 C577.725323 448.091934 585.947003 451.095382 593.591229 455.106125 C600.186565 458.566574 606.487896 462.582626 612.990154 466.226425 C627.862225 474.560470 642.671734 483.016952 657.730023 491.002548 C663.408306 494.013778 669.756268 495.737899 675.703045 498.273727 C682.502667 501.173263 689.142986 504.446823 695.946575 507.336471 C707.282696 512.151230 718.412212 517.704330 730.132061 521.311020 C754.063519 528.675827 777.188763 538.469223 801.606121 544.396347 C811.452801 546.786545 820.826946 551.070724 830.514690 554.186630 C837.595989 556.464157 844.761761 558.592270 852.023480 560.172897 C871.320232 564.373031 890.643353 568.486557 910.052654 572.117904 C917.634808 573.536422 925.868572 572.305099 933.103069 574.547348 C943.195965 577.675644 953.479290 575.200058 963.653362 577.782272 C971.226482 579.704513 979.861736 577.233993 988.030438 577.091598 C993.478069 576.996628 998.937908 577.543197 1004.390911 577.827072 C1006.334759 577.928268 1008.274334 578.214401 1010.216717 578.221969 C1020.548382 578.262253 1031.064861 579.472030 1041.170208 577.959091 C1057.267010 575.549240 1073.426800 577.702865 1089.335125 575.874008 C1098.782635 574.787887 1108.154583 574.865646 1117.538616 574.155380 C1130.676800 573.160934 1143.991741 572.614120 1156.806561 569.883590 C1165.689373 567.990890 1174.523602 569.842819 1183.006756 568.034591 C1196.744915 565.106247 1210.729534 568.238876 1224.157024 565.898971 C1241.030071 562.958603 1258.487591 564.472274 1274.975750 558.460617 C1280.205486 556.553940 1286.273724 558.550461 1292.173382 556.563095 C1298.412762 554.461105 1305.510296 554.901962 1312.234539 554.249374 C1312.894817 554.185348 1313.639202 554.432602 1314.222576 554.212326 C1324.302899 550.404587 1334.994305 549.497360 1345.472942 547.594955 C1351.997845 546.410324 1358.544720 545.346298 1365.084393 544.244003 C1369.138226 543.560775 1373.216717 543.007736 1377.249065 542.216964 C1383.088421 541.071823 1386.206951 543.411178 1385.684612 549.427780 C1385.425335 552.414352 1384.497723 555.789108 1382.729290 558.121322 C1374.983074 568.335983 1366.570843 578.047836 1358.887127 588.306747 C1353.059002 596.088119 1348.048138 604.476608 1342.523846 612.491623 C1336.255291 621.586166 1329.986126 630.688705 1323.418865 639.567001 C1313.013348 653.634323 1302.144695 667.362045 1291.864422 681.518295 C1278.295940 700.202499 1266.753094 720.349472 1251.336346 737.700973 C1245.297894 744.497543 1239.257855 751.296493 1233.064251 757.950729 C1222.293011 769.522934 1211.403118 780.984726 1200.558514 792.488510 C1199.872845 793.215683 1198.565594 793.875045 1198.527142 794.616684 C1197.899822 806.736679 1187.452679 812.743210 1181.835857 821.734970 C1175.727581 831.513778 1169.806683 841.409652 1163.812786 851.259750 C1159.108196 858.991134 1155.077557 866.804123 1153.466473 876.052780 C1152.622112 880.900070 1148.024700 885.021042 1145.457562 889.655685 C1139.909710 899.671615 1133.887982 909.508102 1129.350018 919.977096 C1124.702068 930.700180 1121.626873 942.102096 1117.791790 953.182052 C1116.583660 956.672531 1115.393719 960.206344 1113.761517 963.505661 C1109.893841 971.323776 1106.124432 971.871750 1098.451336 968.144088 C1092.678143 965.339523 1086.226360 963.608078 1079.887127 962.368576 C1070.537518 960.540451 1060.986858 959.764633 1051.587811 958.154831 C1047.345989 957.428268 1043.286175 955.688095 1039.104534 954.552719 C1021.423992 949.752487 1003.702679 945.099838 986.048626 940.205002 C975.908489 937.393600 965.914837 934.050155 955.763348 931.284286 C950.619671 929.882858 945.287640 929.133285 940.010296 928.275985 C936.588421 927.720199 934.473675 929.271408 933.798260 932.789840 C931.002361 947.353988 922.397259 959.397140 916.614544 972.666427 C913.802166 979.119430 910.372967 985.380050 909.533001 992.810348 C908.968426 997.802170 906.165203 1002.718673 903.657269 1007.280563 C894.910320 1023.191452 889.312664 1040.246139 885.968670 1057.920456 C882.942669 1073.913986 878.816692 1089.824142 879.676800 1106.405563 C879.902020 1110.749191 878.454388 1115.174972 877.815594 1119.568893 C875.803753 1133.403488 874.025311 1147.276046 871.752850 1161.067428 C869.346600 1175.670456 866.240399 1190.159103 863.908367 1204.772628 C862.690106 1212.407394 863.071087 1220.311813 861.674236 1227.900192 C859.499554 1239.715011 859.463665 1251.829391 855.975506 1263.484298 C854.348675 1268.919845 854.448162 1274.877975 853.819256 1280.605148 C853.117962 1286.991012 851.932659 1293.385544 851.957317 1299.772506 C851.984661 1306.831344 852.129559 1314.176925 854.051678 1320.872848 C856.859417 1330.652878 855.297161 1340.380172 855.757366 1350.111862 C856.165081 1358.732956 857.542645 1367.102340 859.639568 1375.491867 C861.181927 1381.662643 860.699871 1388.313156 861.902874 1394.600143 C864.499554 1408.172531 864.196331 1422.231613 869.590618 1435.388595 C871.461590 1439.952072 871.052166 1445.553878 871.209271 1450.695846 C871.562054 1462.239547 877.413128 1472.916183 875.950115 1484.823044 C874.937420 1493.066086 873.553021 1494.156784 865.404217 1496.530563 C859.620037 1498.215500 854.012127 1501.907882 849.426678 1505.952682 C843.607952 1511.085373 839.098187 1517.668991 833.675213 1523.290451 C824.883587 1532.403976 816.124065 1541.590378 806.772503 1550.111252 C795.192303 1560.662521 787.141155 1573.898117 777.870098 1586.207931 C774.689739 1590.430710 772.522442 1595.433517 769.220135 1599.539352 C767.893658 1601.188522 764.779400 1602.030685 762.444134 1602.101974 C758.044964 1602.236007 755.931683 1603.652267 755.717754 1608.355514 C755.426434 1614.762253 754.530438 1621.144943 753.794720 1627.526657 C753.210674 1632.592697 752.511150 1637.646164 751.804913 1642.697189 C749.823162 1656.869186 747.856854 1671.043991 745.762066 1685.199508 C745.449871 1687.308883 744.189007 1689.276413 743.867718 1691.385910 C743.033367 1696.864425 742.405438 1702.377975 741.825726 1707.891037 C740.447430 1720.998947 740.090374 1734.303268 737.524456 1747.169967 C735.307476 1758.286545 734.295696 1769.298385 733.500469 1780.543747 C732.756268 1791.068283 729.408672 1801.407638 727.224590 1811.832077 C726.067242 1817.356247 724.592205 1822.843918 723.896160 1828.427292 C722.897015 1836.441818 722.740215 1844.561447 721.744061 1852.576462 C720.532574 1862.324630 718.915936 1872.026413 717.293682 1881.717941 C716.309673 1887.596481 714.538860 1893.369308 713.898846 1899.273971 C712.299908 1914.024093 712.087017 1928.988693 709.517315 1943.549484 C707.408489 1955.499435 706.407879 1967.736862 702.025128 1979.363083 C699.511395 1986.031540 698.515972 1993.459640 697.949688 2000.633468 C696.946880 2013.336105 694.523174 2025.721359 691.957134 2038.162033 C689.901959 2048.126144 689.526348 2058.427170 687.707562 2068.452072 C685.757183 2079.202316 682.994854 2089.805099 680.574261 2100.469650 C680.368755 2101.374679 679.898907 2102.246994 679.837200 2103.153732 C679.129925 2113.540207 678.578167 2123.937912 677.771710 2134.316086 C677.325665 2140.056564 676.385479 2145.756515 675.837505 2151.490890 C675.288921 2157.230392 677.012005 2163.168625 673.915875 2168.715988 C673.206707 2169.986740 673.901653 2171.996017 673.796673 2173.655929 C673.076458 2185.041916 675.338238 2196.524582 672.040386 2207.890304 C671.184979 2210.838546 673.598675 2214.587814 673.720196 2217.996994 C674.005047 2225.986007 673.874065 2233.992599 673.755535 2241.989914 C673.733257 2243.491134 673.401470 2245.315353 672.509197 2246.425216 C665.205303 2255.508712 655.606854 2261.421310 644.094402 2261.904709 C637.494122 2262.181808 630.648235 2259.407150 624.131573 2257.322921 C621.922588 2256.616134 619.249737 2254.086593 618.729229 2251.923019 C616.017925 2240.653976 607.881268 2232.425705 602.876690 2222.470627 C599.942364 2216.633957 595.137005 2211.685226 592.550213 2205.737716 C587.753765 2194.710617 579.629742 2185.174484 577.580425 2172.957931 C576.554791 2166.844162 571.067730 2163.416427 569.426128 2157.278244 C566.660442 2146.937423 561.638104 2137.216720 557.861492 2127.124191 C554.942791 2119.324142 552.652203 2111.290451 549.772137 2103.474777 C544.966168 2090.433029 538.881756 2077.745041 536.672527 2063.943283 C534.539471 2050.616867 529.925823 2038.118087 525.841534 2025.403488 C522.436138 2014.801925 517.560528 2004.284103 516.505535 1993.421310 C515.358318 1981.608322 510.689800 1970.861740 509.356793 1959.101974 C507.649639 1944.041061 502.549969 1929.376999 499.114666 1914.495041 C497.139996 1905.940597 495.293377 1897.338058 493.882610 1888.676681 C492.243511 1878.613571 492.194622 1868.177902 489.551373 1858.419845 C486.075604 1845.588180 487.369366 1831.960739 482.197613 1819.508590 C481.489300 1817.802902 481.787212 1815.624557 481.832989 1813.669967 C482.029461 1805.294845 481.392193 1797.078537 477.921490 1789.282760 C477.549725 1788.447677 477.873882 1787.318527 477.804913 1786.330734 C477.149090 1776.940719 476.959149 1767.485885 475.684063 1758.179977 C474.234661 1747.601120 471.716900 1737.172287 469.878643 1726.640670 C469.426983 1724.053268 469.752239 1721.318161 469.821392 1718.653732 C470.140606 1706.356003 468.913982 1694.288376 465.975689 1682.275192 C464.386517 1675.777878 464.719036 1668.834396 463.745831 1662.156173 C462.702984 1655.000412 460.781170 1647.964401 459.904644 1640.795212 C458.844219 1632.120651 458.382977 1623.367233 457.837139 1614.637008 C457.249798 1605.241134 458.358502 1595.876510 456.062359 1586.409958 C453.859783 1577.329269 457.669720 1567.595871 454.036968 1558.215866 C452.785626 1554.984787 454.762188 1551.002609 454.144634 1546.911545 C452.498150 1536.003708 452.101116 1524.856857 451.916180 1513.793136 C451.727398 1502.494064 450.991009 1491.349167 447.834332 1480.449630 C447.656231 1479.834640 447.840557 1479.121750 447.806927 1478.456833 C447.146099 1465.401046 447.359051 1452.224045 445.574627 1439.323166 C443.614361 1425.150924 442.531536 1410.865646 440.422466 1396.690719 C438.460674 1383.506393 434.889568 1370.634079 433.303692 1357.333175 C432.055706 1346.866501 432.466107 1335.939987 428.119305 1325.632614 C425.730877 1319.969040 426.674664 1312.954879 425.761028 1306.600753 C424.638043 1298.790573 423.123028 1291.037277 421.817303 1283.252731 C420.457256 1275.144088 419.256573 1267.007003 417.788555 1258.918258 C414.528362 1240.954879 411.369183 1222.968307 407.726788 1205.081222 C405.554485 1194.413009 401.108502 1184.023605 400.300640 1173.311569 C399.429485 1161.759811 396.146710 1150.970016 393.765240 1139.882370 C392.526470 1134.115280 390.837383 1128.443039 389.267559 1122.751266 C389.113445 1122.192428 387.912029 1121.739792 387.962811 1121.333908 C389.112408 1112.151413 385.205670 1103.782516 383.762920 1095.029098 C382.280010 1086.032394 380.382061 1077.104538 378.716839 1068.137130 C377.048809 1059.154587 375.983563 1050.019577 373.686810 1041.203537 C370.099835 1027.434860 371.330670 1012.873337 366.135601 999.360885 C364.468304 995.024215 364.279461 990.042892 363.861187 985.316940 C362.747601 972.736618 357.643353 961.134933 355.212017 948.850815 C352.070049 932.976242 347.751934 917.329696 343.749004 901.633712 C342.839275 898.066696 341.144634 894.699875 339.811321 890.240890 M137.811321 403.240890 C137.193462 403.192062 136.575634 403.143234 135.957775 403.094436 C136.575634 403.476577 137.193493 403.858719 137.811321 405.240890 C145.954479 427.489364 162.238690 444.167190 176.654064 462.138351 C181.224163 467.835739 185.671368 473.662155 189.745800 479.718185 C193.914349 485.914108 197.523663 492.484420 201.438641 498.853439 C205.525097 505.501388 210.568340 511.722641 213.629284 518.806259 C220.221905 534.062851 225.902813 549.718551 231.773632 565.279953 C234.821179 573.357834 236.813213 581.896347 240.473858 589.665268 C245.481579 600.293197 252.012371 610.197128 257.165234 620.764877 C261.881481 630.437240 265.586559 640.599655 269.823956 650.509079 C274.546246 661.552353 279.519146 672.490707 284.097698 683.592453 C288.089459 693.271408 291.783367 703.077377 295.434246 712.892135 C302.954937 733.110580 310.894695 753.194931 317.676312 773.661056 C326.235638 799.492050 333.932049 825.613083 341.707806 851.696335 C343.233440 856.813888 342.365765 862.784469 344.426190 867.577438 C351.128216 883.167282 353.479778 899.858505 357.725018 916.052841 C362.537579 934.411300 364.198834 953.534530 371.656170 971.289596 C373.919842 976.679123 374.808086 982.733688 375.737164 988.577316 C377.338421 998.647873 378.394634 1008.803878 379.841168 1018.900802 C380.781902 1025.467453 381.922833 1032.009079 383.126507 1038.533859 C385.294476 1050.285812 387.417645 1062.049972 389.863934 1073.745407 C391.674542 1082.401901 392.404461 1091.450729 394.799358 1099.735153 C400.603314 1119.811081 404.475750 1140.316940 409.455425 1160.549240 C413.491009 1176.945724 415.709820 1193.819626 419.558148 1210.372360 C423.982342 1229.402511 425.191326 1249.224899 430.226910 1268.053268 C434.108502 1282.566940 434.298077 1297.433761 437.743023 1311.861984 C438.845867 1316.481125 439.778301 1321.304855 439.685162 1326.013107 C439.460674 1337.364547 443.536602 1348.030929 444.570049 1359.259079 C445.400433 1368.280197 447.579327 1377.380661 447.921185 1386.690719 C448.178814 1393.706711 449.200420 1400.723800 450.307842 1407.672531 C451.943951 1417.938278 454.374798 1428.090500 455.690228 1438.390426 C456.922711 1448.040939 456.058392 1458.079147 458.285931 1467.430099 C459.343365 1471.868820 457.217144 1475.141281 457.858135 1478.876754 C459.026409 1485.685348 461.157452 1492.393966 461.674969 1499.235885 C462.886456 1515.254074 460.608685 1531.341476 463.553509 1547.438888 C465.410137 1557.587692 463.992718 1568.125778 465.428814 1578.612106 C467.569988 1594.246628 466.965801 1610.242965 467.896282 1626.063888 C468.287762 1632.719650 469.317425 1639.377731 470.582501 1645.933395 C472.776653 1657.303878 476.523480 1668.498581 477.495220 1679.947189 C478.501568 1691.804123 479.725506 1703.525924 481.589947 1715.294479 C483.855206 1729.592941 485.453228 1744.144577 485.556561 1758.599411 C485.677166 1775.454513 489.559551 1791.729660 492.352459 1808.013717 C495.078167 1823.906540 496.164166 1840.053512 499.775921 1855.795334 C501.320538 1862.527023 502.502606 1869.342819 503.804607 1876.129196 C505.168194 1883.236862 506.514813 1890.348312 507.802227 1897.470138 C509.541302 1907.090500 510.998943 1916.767502 512.980328 1926.336593 C515.003521 1936.107345 517.446392 1945.793625 519.827740 1955.486984 C523.095318 1968.787399 526.483135 1982.058273 529.809857 1995.344406 C533.120220 2008.565109 537.765057 2021.444992 541.339092 2034.497970 C547.239361 2056.046554 553.268597 2077.559982 559.971844 2098.854171 C564.217632 2112.341720 569.772076 2125.442550 575.211834 2138.520187 C578.996441 2147.618820 584.353924 2156.108810 587.654217 2165.354171 C595.014874 2185.974289 606.583599 2204.298996 617.623577 2222.927658 C620.522686 2227.819503 625.443585 2231.710617 627.521832 2236.837326 C629.703899 2242.220138 633.283428 2245.237961 637.960186 2247.280197 C648.214031 2251.758224 657.520306 2245.407638 657.876019 2234.396652 C658.254986 2222.664962 658.134319 2210.761642 660.261944 2199.310714 C661.241558 2194.038742 658.569439 2189.228195 660.086041 2184.983566 C662.637920 2177.841720 661.262371 2170.783615 661.796917 2163.715500 C661.897137 2162.389816 661.533184 2160.978927 661.853985 2159.727951 C665.349712 2146.099777 667.709393 2132.345627 667.915325 2118.208420 C667.998577 2112.496017 668.574566 2106.614181 670.105145 2101.139084 C672.649395 2092.037521 676.877178 2083.363937 675.846295 2073.522384 C675.751751 2072.619796 676.145367 2071.665207 676.317120 2070.735519 C678.147991 2060.828781 680.034588 2050.931808 681.794781 2041.012375 C683.340435 2032.301437 684.718975 2023.561203 686.227581 2014.843673 C686.653973 2012.379806 687.877239 2009.909103 687.713787 2007.511154 C686.671978 1992.228439 692.192486 1977.918747 694.197308 1963.095627 C695.760357 1951.539352 699.011211 1940.271530 700.139752 1928.515793 C700.883770 1920.765548 701.502789 1912.862472 703.502789 1905.064865 C706.099163 1894.942306 707.473370 1884.257980 707.546429 1873.802658 C707.628277 1862.084274 712.384075 1851.307663 712.238751 1839.460006 C712.122601 1829.982223 716.324200 1820.530685 717.688336 1810.936569 C719.626263 1797.307541 721.417889 1783.662765 723.777996 1770.095382 C724.651348 1765.074630 725.183880 1759.992721 725.803265 1754.930343 C727.162457 1743.820480 728.449261 1732.701584 729.824749 1721.593795 C730.410870 1716.860519 730.138165 1711.689499 732.027142 1707.519943 C735.631146 1699.564987 732.918682 1691.156906 735.410931 1682.960128 C738.431316 1673.026535 738.461346 1662.186691 739.826824 1651.744430 C740.071026 1649.876632 740.213482 1647.908127 740.926067 1646.205124 C743.323284 1640.475998 744.352947 1634.599289 743.847332 1628.399093 C743.631329 1625.750290 743.283245 1622.939377 743.901653 1620.425094 C746.763043 1608.791305 747.913921 1597.006271 747.813213 1585.063888 C747.799175 1583.397506 747.440045 1581.627243 747.871624 1580.081222 C750.646710 1570.140670 751.900616 1560.025680 751.812786 1549.724777 C751.801434 1548.391769 751.263165 1546.651169 751.901348 1545.792160 C755.701641 1540.677170 753.652996 1534.916794 753.615948 1529.556930 C753.578350 1524.103805 756.442974 1519.193039 754.227215 1513.064010 C752.036114 1507.002853 757.204510 1500.204269 754.492230 1492.826339 C752.804119 1488.234420 755.210186 1482.127487 755.817181 1476.704635 C756.458111 1470.978683 757.267010 1465.268600 757.781902 1459.531784 C758.504559 1451.481003 757.651104 1443.492721 759.446209 1435.285812 C761.645306 1425.231491 761.318218 1414.594162 761.752239 1404.195114 C762.057781 1396.875290 761.811321 1389.532516 761.811321 1382.199997 C761.811321 1374.534225 761.811321 1366.868332 761.811321 1359.202560 C761.811321 1351.870041 761.212078 1344.474045 761.980572 1337.222946 C762.743084 1330.027511 761.641583 1322.966110 761.899029 1315.867599 C762.179607 1308.130539 764.982220 1300.002487 763.351482 1292.799606 C761.259441 1283.559250 761.606426 1274.507858 762.155377 1265.548141 C762.557049 1258.993576 762.376812 1252.409347 761.475811 1246.235153 C759.854473 1235.125778 757.682903 1224.135666 757.809246 1212.846969 C757.824200 1211.513839 757.996258 1210.150314 757.783367 1208.851974 C754.995403 1191.849167 753.706036 1174.734787 753.809063 1157.510055 C753.824993 1154.843795 754.749249 1151.681076 753.646893 1149.598068 C749.173687 1141.145553 749.961712 1132.143356 749.746136 1123.172531 C749.686688 1120.697921 748.768170 1118.253341 748.360272 1115.775924 C746.817913 1106.408371 745.439068 1097.012375 743.775311 1087.666794 C742.400677 1079.945358 740.850933 1072.247604 739.089703 1064.606003 C738.405193 1061.635910 736.380901 1058.937057 735.899273 1055.963669 C732.551312 1035.295456 726.663433 1015.312545 720.075115 995.503708 C715.982952 983.199875 711.781780 970.930710 707.841412 958.578476 C703.048321 943.553634 698.282818 928.514755 693.867230 913.376388 C689.608990 898.777023 686.244915 883.906295 681.664166 869.415207 C678.424481 859.166366 673.734783 849.381454 669.829754 839.335983 C664.360882 825.267868 660.483868 810.341659 653.257916 797.255722 C643.971478 780.438278 637.241436 762.430465 626.292645 746.254989 C615.358990 730.101791 602.525189 716.857834 586.668194 706.179245 C570.555523 695.328598 553.980999 685.156295 538.004620 674.114120 C530.589581 668.989242 524.572918 661.830063 517.124249 656.767135 C494.831097 641.614120 472.227276 626.911667 449.573773 612.298385 C439.114361 605.551315 428.234783 599.457870 417.586285 593.001327 C402.929180 584.114303 388.161724 575.396103 373.731487 566.152878 C365.218914 560.700119 355.926128 556.366806 348.924297 548.573349 C345.329266 544.571945 340.756817 541.313156 336.236248 538.304428 C322.946636 529.459457 309.401043 521.000168 296.068951 512.217880 C278.768719 500.821701 261.594891 489.233932 244.335217 477.775985 C223.989971 464.269699 206.315594 447.185379 185.309857 434.480301 C171.055218 425.858627 157.761578 415.654464 143.936260 406.308761 C142.215160 405.145248 139.868267 404.907577 137.811321 403.240890 M477.811321 399.240890 C468.275189 391.704727 458.790753 384.101852 449.189434 376.649734 C437.862652 367.858413 426.830608 358.602005 414.917217 350.680587 C406.367474 344.995712 400.362042 336.588333 390.868450 331.722183 C381.382305 326.859878 373.423382 318.979904 364.916912 312.268203 C362.403668 310.285293 360.639752 307.068985 356.642132 308.410110 C358.208904 310.530716 359.767620 312.657333 361.343853 314.770828 C367.230389 322.663650 372.137005 331.613785 379.234661 338.203140 C391.023480 349.147567 398.256329 363.535354 409.326824 374.913986 C413.293194 378.990738 416.601788 383.787338 419.765301 388.551071 C431.725262 406.560806 443.385113 424.770279 455.384441 442.753372 C465.337200 457.669418 475.575787 472.395614 485.759014 487.156723 C489.173687 492.106430 492.799908 496.910507 496.344341 501.770309 C500.825420 507.914230 505.409710 513.985214 509.783123 520.204574 C513.208843 525.076217 515.939739 530.497116 519.748699 535.027145 C531.601544 549.123947 542.491131 563.912521 551.738018 579.804672 C565.366131 603.226669 576.802960 627.839523 593.513592 649.564926 C602.347942 661.050522 609.001629 674.202560 619.224285 684.848251 C624.043621 689.867050 627.574444 696.097641 632.102642 701.427780 C638.237408 708.648910 643.864971 716.764572 651.351482 722.260727 C661.583416 729.772323 670.818279 738.468002 681.471111 745.594467 C694.345257 754.207138 705.154644 765.907882 716.846600 776.284469 C719.050274 778.240219 720.893292 781.048446 723.454571 782.045273 C726.865399 783.372848 727.067486 785.554062 728.036907 788.487899 C729.835247 793.930221 733.583172 797.976425 739.138165 800.828964 C747.729717 805.240707 756.542584 808.766708 765.825665 811.257003 C785.889202 816.639267 804.174236 826.468551 823.300091 834.198471 C838.147869 840.199325 852.058392 848.091110 867.341961 853.447067 C883.027752 858.943893 898.714153 863.619613 915.016155 866.086776 C924.943401 867.589157 935.106121 868.194259 945.152752 868.101303 C961.875652 867.946762 978.585980 866.618515 995.310467 866.358993 C1004.078045 866.222946 1012.961102 866.156540 1021.616619 865.724960 C1031.307659 865.241745 1041.054607 864.566208 1050.800213 864.153732 C1055.528240 863.953598 1060.448895 863.512863 1064.881390 862.003647 C1079.461834 857.039413 1094.145794 852.198105 1108.254315 846.074936 C1126.190350 838.290573 1142.632855 827.668197 1156.772381 814.102768 C1174.761273 796.844345 1192.226971 779.034347 1209.707317 761.254867 C1218.176556 752.640609 1226.303997 743.677414 1234.331951 734.646164 C1242.286663 725.697128 1250.416668 716.833969 1257.573284 707.262802 C1266.798138 694.925277 1274.922039 681.771103 1283.901531 669.241989 C1294.987835 653.773483 1306.701702 638.752914 1317.705608 623.227646 C1327.694134 609.134750 1337.034954 594.584274 1346.784588 580.319748 C1350.362103 575.085495 1354.236492 570.049301 1358.101360 565.019394 C1359.092449 563.729538 1360.561688 562.807174 1361.811321 561.715988 C1360.108440 561.224289 1358.424847 560.641098 1356.695110 560.276962 C1355.737835 560.075546 1354.661297 560.054672 1353.710003 560.268905 C1339.703045 563.423996 1325.204510 562.980087 1311.188519 566.172592 C1305.636761 567.437179 1299.892254 567.829879 1294.268963 568.811386 C1284.343914 570.543625 1274.481854 572.673996 1264.521893 574.157638 C1257.197186 575.248642 1249.621502 574.904648 1242.399212 576.381393 C1227.720135 579.382858 1212.957562 580.135483 1198.044109 580.341537 C1182.319500 580.558761 1166.252850 579.774032 1150.990276 582.766342 C1136.798992 585.548752 1122.488079 585.624557 1108.328045 587.864547 C1096.198895 589.783188 1083.611736 588.170212 1071.190594 589.979660 C1062.054363 591.310653 1052.568279 590.240890 1043.238079 590.240890 C1033.574627 590.240890 1023.911297 590.240890 1014.247845 590.240890 C1004.917645 590.240890 995.571575 590.578598 986.261639 590.145065 C977.130047 589.719772 968.092815 592.012436 958.898968 590.380111 C954.376385 589.577194 949.385174 591.109787 944.973797 590.051803 C936.910809 588.117843 928.905315 586.533371 920.597088 586.167465 C913.526775 585.856186 906.361126 585.515426 899.455364 584.114364 C885.089642 581.199753 870.803997 577.824447 856.604412 574.175461 C840.080242 569.929123 823.731243 565.003097 807.219158 560.706772 C785.951580 555.173141 766.184673 545.387436 744.847881 539.768478 C727.088543 535.091598 710.182415 527.073349 693.054974 520.147995 C686.209637 517.380111 679.849896 513.435287 673.154522 510.268417 C656.719341 502.494735 639.927105 495.419296 623.818707 487.026291 C605.126751 477.287155 586.952679 466.543747 568.663860 456.044601 C552.761395 446.915359 536.993878 437.550125 521.203106 428.227646 C513.427654 423.637191 505.587689 419.130630 498.048077 414.173752 C491.439129 409.828689 485.208843 404.907547 477.811321 399.240890 M15.811321 305.240890 C15.424313 306.853866 14.175213 309.281753 14.797787 309.940353 C17.668255 312.976944 20.937756 315.683700 24.293835 318.202682 C29.339977 321.990188 34.681713 325.384842 39.713329 329.190353 C52.420940 338.801315 64.746441 348.946182 77.776226 358.091781 C85.598217 363.581985 94.562206 367.418106 102.811627 372.335342 C109.001537 376.024978 114.477276 381.112564 120.957409 384.077621 C139.450268 392.539352 156.177044 403.923752 173.168591 414.809005 C190.652416 426.009536 207.608013 438.055099 224.529827 450.103012 C232.106335 455.497238 238.484997 462.730636 246.415569 467.426498 C254.285473 472.086532 262.445873 476.083969 269.156994 482.473373 C270.191692 483.458481 272.028545 483.546127 273.377850 484.267135 C276.114788 485.729538 278.863995 487.202621 281.445721 488.916000 C291.650677 495.688522 301.675579 502.738693 311.987774 509.341537 C324.984112 517.663192 338.114056 525.704635 350.195660 535.430160 C360.937420 544.077133 371.740521 552.726486 384.622357 558.393051 C390.560711 561.005295 395.790203 565.235824 401.324139 568.759201 C410.554974 574.636398 419.665630 580.710739 429.019695 586.384140 C443.643231 595.253402 458.499920 603.738693 473.110882 612.628219 C479.548565 616.544967 485.533611 621.198715 491.891338 625.255722 C498.448467 629.439804 505.568524 632.816452 511.808270 637.408004 C526.440228 648.174850 540.283245 660.056442 555.259930 670.295639 C563.707073 676.070724 571.738751 682.437545 581.097759 687.281906 C593.070721 693.479294 603.478863 702.917282 613.988934 711.647812 C621.091412 717.547653 626.856121 725.041061 633.850079 731.092514 C643.035809 739.040451 652.732403 746.415756 662.420208 753.759018 C668.688213 758.509994 675.023174 763.359787 681.952801 766.964462 C684.996807 768.547775 686.744427 773.471115 691.463604 771.588608 C688.868023 768.761215 686.327557 765.879257 683.632732 763.149826 C683.054058 762.563766 681.738445 762.750839 681.062969 762.207809 C670.050457 753.354477 658.650005 744.921982 648.202068 735.441208 C626.260662 715.530868 608.213482 692.252121 590.661663 668.433883 C575.751995 648.200851 563.082867 626.789840 551.180706 604.765060 C544.675518 592.727218 537.551678 580.973007 529.969647 569.581588 C521.735333 557.210006 512.521404 545.494613 503.994793 533.310959 C500.986065 529.011764 499.338726 523.689804 496.049542 519.669418 C483.144085 503.895126 469.896343 488.437240 459.311565 470.884262 C453.959393 462.008651 447.573467 453.762497 441.834759 445.112472 C433.002422 431.799240 424.615887 418.180435 415.483624 405.079269 C408.918438 395.660751 401.398785 386.910843 394.388226 377.798660 C383.509808 363.659134 373.079815 349.154770 361.757977 335.381942 C350.547466 321.744522 340.198467 307.412277 329.194988 293.634567 C317.541607 279.043167 304.647686 265.540786 293.262188 250.765640 C287.373638 243.123825 280.924175 235.916183 274.961956 228.328628 C268.676006 220.328994 262.873730 211.493087 256.050701 204.464370 C245.776714 193.880645 238.669415 181.229248 229.288738 170.155945 C214.235119 152.386032 200.648693 133.381118 183.789349 117.134018 C181.507977 114.935516 179.727917 112.198425 177.822186 109.631698 C169.880077 98.934875 161.960064 88.221557 154.066784 77.488678 C142.578503 61.867630 133.402447 44.825309 123.919659 27.983528 C123.089062 26.508362 124.267895 23.569793 121.051464 24.326492 C119.307995 24.736641 116.882794 25.625152 116.279766 26.974708 C111.257153 38.214790 106.564068 49.602798 101.816937 60.965133 C95.052258 77.156509 89.609264 93.890869 81.813488 109.659195 C81.130352 111.040970 80.271099 112.377441 79.844036 113.837463 C76.451946 125.434906 73.217205 137.078766 69.767590 148.658783 C68.715954 152.188965 66.255291 155.490860 65.963299 159.023208 C64.606396 175.439529 56.735485 189.979171 52.905285 205.706588 C49.430218 219.975692 43.053204 233.550827 37.780407 247.365066 C33.938336 257.430984 29.774304 267.373550 25.822643 277.398208 C22.434826 285.992447 19.144665 294.625168 15.811321 305.240890 M847.811321 1247.240890 C848.518841 1241.866623 849.096233 1236.471237 849.965984 1231.123459 C851.129070 1223.973434 852.775921 1216.895431 853.752361 1209.723434 C855.306194 1198.309616 855.478558 1186.610275 858.081097 1175.462814 C860.909100 1163.349289 865.109417 1151.608932 863.824505 1138.896286 C863.724407 1137.906784 863.663372 1136.872238 863.833904 1135.902511 C865.798504 1124.728561 868.658001 1113.631759 869.572552 1102.375900 C870.482830 1091.172287 871.541180 1080.071823 873.754437 1069.051925 C874.756268 1064.063766 875.096111 1058.945480 875.824993 1053.898849 C876.549358 1048.884201 876.557415 1043.570602 878.320355 1038.936325 C884.777020 1021.962936 892.044598 1005.299606 898.602947 988.363205 C904.610394 972.849533 910.048260 957.115890 915.839275 941.517074 C917.659710 936.613998 920.029949 931.905624 921.658489 926.947250 C922.069256 925.696701 920.380779 922.395797 920.014935 922.449997 C910.921307 923.799545 904.157879 916.648483 895.496258 915.995712 C889.451214 915.540146 883.503948 913.008712 877.645550 911.014999 C864.220135 906.446212 850.822918 901.782089 837.517010 896.877975 C828.565716 893.578781 818.706951 891.318283 811.160931 885.925216 C795.499188 874.731857 778.400799 865.752792 763.506756 853.314254 C750.406170 842.373520 736.126080 832.910629 727.748150 817.359237 C727.409710 816.731064 726.144268 816.602279 725.310772 816.240890 C725.302410 817.065658 725.078655 817.959518 725.317669 818.705002 C729.748882 832.527084 733.813397 846.486496 738.815899 860.100753 C745.212505 877.509201 746.598126 896.038070 751.730694 913.717514 C755.773113 927.642135 754.026348 942.671982 759.685528 956.417526 C761.795879 961.543380 763.045330 967.189987 763.700176 972.716232 C765.367535 986.786422 766.308025 1000.941330 767.870770 1015.025558 C768.921246 1024.492599 770.365826 1033.925583 771.945110 1043.321457 C773.717877 1053.868210 776.176067 1064.307663 777.704083 1074.885055 C778.904644 1083.195724 778.526898 1091.761398 780.075298 1099.983200 C780.835308 1104.018356 778.556194 1107.570846 779.900677 1111.334762 C785.526043 1127.083908 784.455120 1143.910568 787.668255 1160.069992 C789.170574 1167.625168 789.043011 1175.494674 789.848919 1183.201462 C790.343548 1187.932174 790.448773 1192.900558 792.046185 1197.282028 C796.853436 1210.467819 795.785320 1224.369430 797.706219 1237.888107 C798.934002 1246.529342 797.575115 1255.820968 800.183514 1263.916305 C803.985638 1275.716720 798.628826 1288.026169 803.811321 1299.367477 C800.727581 1306.260299 803.243816 1313.136642 803.761273 1320.049850 C804.612469 1331.422897 805.103436 1342.822311 805.861126 1354.203170 C805.960857 1355.701828 806.942913 1357.124923 807.165936 1358.634689 C808.426922 1367.174484 809.718792 1375.713913 810.727215 1384.285446 C811.489910 1390.769088 810.605145 1397.723556 812.649822 1403.719406 C816.445232 1414.848190 816.400677 1426.607467 819.748089 1437.740524 C822.074627 1445.478195 823.736004 1453.413376 825.818157 1461.227462 C829.094402 1473.523727 832.440106 1485.802170 835.884441 1498.052170 C836.131756 1498.931808 837.422283 1499.518112 838.227703 1500.240890 C838.755535 1499.240646 839.339764 1498.265548 839.802532 1497.236129 C844.258221 1487.326584 850.180340 1480.881393 860.423992 1485.816330 C862.960125 1487.038131 864.159588 1485.894455 863.794232 1483.224167 C862.877972 1476.525436 864.846722 1469.876510 862.161297 1462.921798 C859.816326 1456.848190 860.453167 1449.616012 859.826824 1442.890548 C859.644573 1440.934494 859.936321 1438.897506 859.518963 1437.006027 C857.029705 1425.726242 853.883953 1414.565841 851.939007 1403.197677 C849.416302 1388.453903 847.393719 1373.593918 845.937298 1358.707443 C844.666180 1345.713669 844.232952 1332.620529 843.882244 1319.559128 C843.551434 1307.238571 843.811321 1294.902267 843.811321 1282.572799 C843.811321 1280.240280 843.103069 1277.611129 843.934124 1275.626510 C847.500042 1267.110763 844.669598 1257.744308 847.811321 1247.240890 M823.811321 1509.240890 C823.144695 1507.180832 822.179363 1505.162155 821.887371 1503.050338 C821.526898 1500.445236 822.402874 1497.526046 821.572674 1495.152511 C816.688397 1481.188644 812.939129 1467.061325 811.630779 1452.219162 C811.036541 1445.479171 809.128948 1438.663131 806.660442 1432.332565 C804.069256 1425.687423 806.546063 1418.644333 803.875042 1412.147873 C802.820599 1409.583420 802.148968 1406.759201 801.872845 1403.996383 C801.036053 1395.622848 800.801556 1387.180343 799.737835 1378.840500 C798.010540 1365.300827 795.189129 1351.876266 793.992474 1338.300583 C792.875652 1325.630661 794.113567 1312.870163 792.050335 1300.106491 C790.239178 1288.901046 790.572430 1277.357712 789.775677 1265.976242 C789.303997 1259.238815 789.423870 1252.255172 787.593548 1245.864670 C784.718426 1235.826828 786.119427 1225.478439 783.952557 1215.428878 C782.537640 1208.866378 783.684063 1201.602829 781.570904 1195.369430 C776.509319 1180.438156 777.458782 1164.702194 774.150066 1149.528000 C771.748821 1138.515670 772.801251 1126.789474 771.697125 1115.441574 C770.966717 1107.935226 769.104717 1100.541916 767.826519 1093.084884 C767.076458 1088.708664 765.901348 1084.303634 765.922955 1079.916549 C765.980389 1068.266891 764.318707 1056.922043 761.953411 1045.543380 C760.284771 1037.516159 757.998333 1029.646774 757.359173 1021.264328 C756.927899 1015.608444 756.857464 1009.634323 755.608807 1004.104171 C753.188946 993.386886 753.050335 982.501144 751.919964 971.704147 C750.893414 961.899093 748.516644 952.255111 746.588482 942.750290 C744.361736 931.773300 742.656841 920.582809 739.830486 909.681442 C737.251873 899.735458 735.018841 889.697250 732.305096 879.789657 C728.293011 865.141708 724.295940 850.475876 719.686443 836.010849 C717.265789 828.414474 714.363140 820.704147 710.066143 814.093124 C708.103619 811.073654 709.092510 809.654770 709.915447 807.816879 C711.082317 805.211166 713.541790 802.942184 710.640057 800.089950 C706.539959 796.059738 702.908611 791.637924 696.767315 790.076767 C692.670330 789.035202 688.613812 786.924362 685.159771 784.432113 C674.066448 776.428085 663.273602 768.008285 652.324322 759.802902 C651.360821 759.080734 650.102215 758.752243 648.980755 758.240890 C648.590923 759.712997 648.094647 761.169479 647.874188 762.666549 C647.805096 763.135605 648.454632 763.731430 648.816387 764.239914 C660.608196 780.811752 667.649395 799.679977 674.958538 818.411789 C677.422772 824.726913 679.587322 831.159347 682.068829 837.467331 C686.578533 848.930954 692.709026 859.992233 695.496197 871.848434 C700.982769 895.186569 710.511028 917.430160 713.865948 941.295517 C719.682110 949.985397 721.061260 960.347458 724.747540 969.794723 C733.805218 993.007614 740.366985 1016.822555 745.923443 1041.036911 C748.865276 1053.856979 751.772686 1066.662277 754.465618 1079.538253 C756.877667 1091.071335 759.442608 1102.438034 759.883892 1114.260666 C760.160259 1121.665695 760.831707 1129.090500 761.913799 1136.419601 C762.729412 1141.943771 765.788128 1147.410690 765.459576 1152.756271 C765.098431 1158.632126 767.809368 1163.999679 766.439434 1170.258346 C765.708477 1173.597702 767.326153 1178.047409 766.163555 1182.554733 C765.143353 1186.510177 767.285992 1191.229171 767.779034 1195.639084 C768.566509 1202.682663 768.941570 1209.776413 769.863628 1216.800094 C770.976360 1225.276657 773.114361 1233.662155 773.650250 1242.160080 C774.320294 1252.784469 773.350994 1263.508835 773.942486 1274.142502 C774.520001 1284.525436 771.315716 1295.151535 775.754559 1305.297653 C771.645367 1313.084640 775.334698 1321.559616 773.677288 1329.464523 C772.019024 1337.373459 774.452618 1345.056930 773.803936 1352.835006 C773.034161 1362.066330 773.696758 1371.294357 773.671368 1380.521408 C773.646465 1389.580246 771.733868 1398.659103 772.013714 1407.686935 C772.313274 1417.350387 766.247051 1426.406173 769.811321 1436.207809 C766.330059 1441.603805 768.157452 1447.629562 767.864178 1453.382003 C767.609905 1458.369064 767.811321 1463.379196 767.811321 1468.379196 C767.811321 1473.712448 769.336590 1479.697189 767.410198 1484.207809 C765.195538 1489.393478 768.851971 1493.149704 767.965801 1497.751999 C766.693524 1504.359054 766.309307 1511.158371 765.848614 1517.896164 C765.047649 1529.610763 764.477581 1541.341232 763.813763 1553.065109 C763.794964 1553.397384 763.858990 1553.739670 763.804485 1554.063888 C761.812664 1565.903366 759.785259 1577.737228 757.869366 1589.588913 C757.740460 1590.386276 758.442364 1591.318161 758.757855 1592.187423 C759.464947 1591.515915 760.314800 1590.942672 760.855511 1590.156784 C763.882061 1585.757248 767.326336 1581.554977 769.715130 1576.824386 C775.873882 1564.628586 784.523235 1554.455490 794.106976 1544.933273 C802.856121 1536.240646 811.542034 1527.484420 820.284954 1518.785568 C822.400921 1516.680343 824.745281 1514.743820 823.811321 1509.240890 M909.811321 875.240890 C903.895794 874.240890 897.918865 873.502853 892.088787 872.137924 C888.843060 871.378036 885.911297 869.371628 882.718304 868.275924 C868.715984 863.470871 854.575604 859.051742 840.672283 853.979782 C831.144085 850.503830 821.934124 846.159347 812.563274 842.247665 C802.908733 838.217331 793.183514 834.351547 783.588787 830.184738 C779.913189 828.588546 776.687359 825.254562 772.948284 824.664108 C766.637371 823.667526 760.991924 821.660141 755.219036 819.043075 C752.108196 817.632797 747.737225 819.002182 743.934795 819.117416 C745.736187 821.667770 747.505474 824.241806 749.357708 826.754684 C749.943951 827.549911 750.678265 828.279770 751.469463 828.873459 C764.676922 838.783493 777.490887 849.293808 791.250897 858.368698 C803.396893 866.379074 815.512737 874.393417 828.786541 880.924667 C845.008587 888.906723 861.977337 894.244674 878.837566 900.059982 C889.387859 903.698898 900.603069 905.365463 911.416546 908.298263 C922.761639 911.375229 933.895672 915.253280 945.284466 918.140182 C955.902508 920.831833 966.753826 922.591049 977.463421 924.938705 C982.921063 926.135116 988.464886 927.266647 993.668743 929.226730 C1005.106854 933.534774 1016.499432 937.758163 1028.897015 938.299606 C1030.044964 938.349777 1031.114178 939.398483 1032.292523 939.687423 C1041.371014 941.913070 1050.380291 945.292343 1059.579144 945.944931 C1072.432659 946.856735 1085.250530 947.157272 1097.909588 950.062973 C1100.948162 950.760421 1104.569378 949.368637 1105.814007 945.436020 C1106.465862 943.376022 1107.236370 941.349106 1107.794109 939.264694 C1109.480877 932.962143 1110.077801 926.133224 1112.929974 920.423874 C1119.844524 906.582077 1127.764202 893.240646 1135.348309 879.736435 C1137.330120 876.207443 1140.211468 873.053146 1141.554607 869.321762 C1144.736981 860.480453 1149.543743 852.566757 1154.437908 844.684738 C1157.258953 840.141586 1160.672161 835.964828 1163.464764 831.406418 C1164.141766 830.301132 1163.419842 828.338974 1163.341473 826.771042 C1162.399334 827.359726 1161.369549 827.844833 1160.530804 828.555526 C1157.557293 831.075668 1154.695232 833.727951 1151.707440 836.230575 C1142.778118 843.709823 1130.639935 845.932968 1122.172649 854.210800 C1121.314617 855.049667 1120.106609 855.843124 1118.959637 856.027389 C1102.315960 858.701095 1087.817669 868.029098 1070.936688 870.629013 C1057.443890 872.707077 1044.160442 876.037460 1030.397381 876.251022 C1021.623089 876.387069 1012.940350 875.036667 1004.052044 876.015060 C994.838055 877.029342 985.425213 876.286728 976.099896 876.227646 C967.325970 876.172043 958.605023 876.981430 949.767132 876.443588 C936.825726 875.656051 923.800701 876.240890 909.811321 875.240890 z"/><path class="selected"  fill="#000000" opacity="1.000000" stroke="none" 
 	d="
M1122.311321 412.740890 C1123.018231 413.367355 1123.641888 414.614456 1123.356976 415.598556 C1122.342083 419.104965 1121.042278 422.530563 1119.792156 425.965683 C1119.523846 426.703323 1119.012371 427.352524 1118.612957 428.042495 C1118.345745 427.494735 1117.844402 426.945389 1117.848065 426.399429 C1117.879925 421.636612 1116.480267 416.411728 1122.311321 412.740890 z"/></svg>