<?xml version="1.0" encoding="UTF-8"?>
<svg width="1200pt" height="1200pt" version="1.1" viewBox="0 0 1200 1200" xmlns="http://www.w3.org/2000/svg">
 <g>
  <path d="m600 120c-265.09 0-480 214.89-480 480 0 265.09 214.89 480 480 480 265.09 0 480-214.89 480-480 0-265.09-214.89-480-480-480zm0 840c-198.83 0-360-161.17-360-360s161.17-360 360-360 360 161.17 360 360-161.17 360-360 360z"/>
  <path d="m840 600c0 132.55-107.45 240-240 240s-240-107.45-240-240 107.45-240 240-240 240 107.45 240 240"/>
 </g>
</svg>
