<?xml version="1.0" encoding="UTF-8"?>
<svg  width="1200pt" height="1200pt" version="1.1" viewBox="0 0 1200 1200" xmlns="http://www.w3.org/2000/svg">
 <g  fill="#70FF00" stroke="#70FF00" stroke-linejoin="round" stroke-width="4">
  <path transform="scale(18.75)" d="m42 32c0 5.5229-4.4771 10-10 10s-10-4.4771-10-10 4.4771-10 10-10 10 4.4771 10 10"/>
  <path transform="scale(18.75)" d="m54.5 32c0 8.0385-4.2885 15.466-11.25 19.486-6.9615 4.0192-15.539 4.0192-22.5 0-6.9615-4.0194-11.25-11.447-11.25-19.486s4.2885-15.466 11.25-19.486c6.9615-4.0192 15.539-4.0192 22.5 0 6.9615 4.0194 11.25 11.447 11.25 19.486" fill="none"/>
 </g>
</svg>
